<?xml version="1.0" standalone="no"?><!DOCTYPE svg PUBLIC "-//W3C//DTD SVG 1.1//EN" "http://www.w3.org/Graphics/SVG/1.1/DTD/svg11.dtd"><svg t="1591453346125" class="icon" viewBox="0 0 1024 1024" version="1.1" xmlns="http://www.w3.org/2000/svg" p-id="2511" xmlns:xlink="http://www.w3.org/1999/xlink" width="200" height="200"><defs><style type="text/css"></style></defs><path d="M936.96 258.56a30.6432 30.6432 0 0 0-8.33024-21.59616 28.5696 28.5696 0 0 0-20.71552-8.99072h-62.7712V117.11488A29.57312 29.57312 0 0 0 816.09216 87.04H211.05152a29.57312 29.57312 0 0 0-29.05088 30.06976v110.85824H116.09088a28.56448 28.56448 0 0 0-20.71552 8.99072A30.62272 30.62272 0 0 0 87.04 258.56c0.66048 39.99232 22.18496 116.87936 94.95552 154.07616v17.63328c0 179.11808 133.25824 326.53824 302.52032 341.83168v104.71936H317.98272V936.96h383.05792v-60.14464h-158.41792V772.096c169.26208-15.29344 302.52032-162.7136 302.52032-341.83168v-19.328C915.36384 373.15072 936.29952 297.984 936.96 258.56zM150.70208 288.11264h31.29856v52.29056a120.5248 120.5248 0 0 1-31.29856-52.29056z m636.3392 142.15168c0 156.09344-122.6752 283.0848-273.46944 283.0848S240.128 586.35776 240.128 430.26432V147.18464h546.91328v283.07968z m58.10176-93.02016v-49.152h28.1088a122.2144 122.2144 0 0 1-28.1088 49.152z" fill="#c20c0c" p-id="2512"></path><path d="M411.78624 585.84064a27.16672 27.16672 0 0 1-16.3328-5.49888 29.184 29.184 0 0 1-10.112-32.13824l32.04096-101.888-83.88608-62.976a29.184 29.184 0 0 1-10.09664-32.10752 27.83232 27.83232 0 0 1 26.43456-19.85024h103.68l32.04608-101.888a27.53024 27.53024 0 0 1 52.86912 0l32.03072 101.888h103.68a27.83744 27.83744 0 0 1 26.45504 19.87584 29.184 29.184 0 0 1-10.14784 32.12288L606.62272 446.3104l32.03584 101.888a29.184 29.184 0 0 1-10.0864 32.11264 27.01312 27.01312 0 0 1-32.68608 0L512 517.35552l-83.87584 62.976a27.09504 27.09504 0 0 1-16.33792 5.50912z m-14.38208-49.26464l-0.06656 0.04608z m100.18304-30.04416a1.8176 1.8176 0 0 1 0.15872 0.11776zM512 457.30304a27.136 27.136 0 0 1 16.41472 5.57056l37.19168 27.91936-14.23872-45.28128a29.184 29.184 0 0 1 10.112-32.13312l37.25312-27.97056h-46.08a27.84768 27.84768 0 0 1-26.43456-19.81952L512 320.29184 497.76128 365.568a27.84768 27.84768 0 0 1-26.43456 19.85024h-46.08l37.2736 27.9808a29.184 29.184 0 0 1 10.09152 32.1536l-14.22848 45.24544 37.26848-27.9808A27.2128 27.2128 0 0 1 512 457.30304z m-80.23552-0.18944h0.03072z m160.47616 0z m-169.35936-28.30336a0.26624 0.26624 0 0 0 0 0.06144z m178.23232-0.03072v0.06144z m58.63936-89.17504l-0.07168 0.05632zM488.69376 246.1696v0.03584z" fill="#c20c0c" p-id="2513"></path></svg>