<?xml version="1.0" standalone="no"?><!DOCTYPE svg PUBLIC "-//W3C//DTD SVG 1.1//EN" "http://www.w3.org/Graphics/SVG/1.1/DTD/svg11.dtd"><svg t="1591543462329" class="icon" viewBox="0 0 1024 1024" version="1.1" xmlns="http://www.w3.org/2000/svg" p-id="8783" xmlns:xlink="http://www.w3.org/1999/xlink" width="200" height="200"><defs><style type="text/css"></style></defs><path d="M512 1023.999128a512.146616 512.146616 0 0 1-199.301095-983.727163 512.146616 512.146616 0 0 1 398.561624 943.495764 508.891189 508.891189 0 0 1-199.260529 40.231399z m0-960.594363a448.731709 448.731709 0 0 0-174.606501 861.957967A448.731709 448.731709 0 0 0 686.616642 98.636396a445.912367 445.912367 0 0 0-174.616642-35.231631z" fill="#c20c0c" p-id="8784"></path><path d="M250.328575 513.160768m-50.707586 0a50.707586 50.707586 0 1 0 101.415171 0 50.707586 50.707586 0 1 0-101.415171 0Z" fill="#c20c0c" p-id="8785"></path><path d="M513.125708 513.160768m-50.707585 0a50.707586 50.707586 0 1 0 101.415171 0 50.707586 50.707586 0 1 0-101.415171 0Z" fill="#c20c0c" p-id="8786"></path><path d="M775.932984 513.160768m-50.707586 0a50.707586 50.707586 0 1 0 101.415171 0 50.707586 50.707586 0 1 0-101.415171 0Z" fill="#c20c0c" p-id="8787"></path></svg>