<?xml version="1.0" standalone="no"?><!DOCTYPE svg PUBLIC "-//W3C//DTD SVG 1.1//EN" "http://www.w3.org/Graphics/SVG/1.1/DTD/svg11.dtd"><svg t="1591533530220" class="icon" viewBox="0 0 1032 1024" version="1.1" xmlns="http://www.w3.org/2000/svg" p-id="3895" xmlns:xlink="http://www.w3.org/1999/xlink" width="201.5625" height="200"><defs><style type="text/css"></style></defs><path d="M754.60096 948.5312H289.30048c-70.09792 0-127.20128-57.00096-127.20128-127.20128V181.13024c0-70.09792 57.00096-127.20128 127.20128-127.20128h465.39776c70.0928 0 127.20128 57.00096 127.20128 127.20128v640.30208c-0.09728 70.09792-57.20064 127.09888-127.29856 127.09888zM289.30048 104.832c-42.10176 0-76.29824 34.2016-76.29824 76.29824v640.30208c0 42.10688 34.20672 76.29824 76.29824 76.29824h465.39776c42.10176 0 76.29312-34.2016 76.29312-76.29824V181.13024c0-42.10176-34.2016-76.29824-76.29312-76.29824H289.30048z" fill="#c20c0c" p-id="3896"></path><path d="M685.9008 719.1296H356.50048a25.44128 25.44128 0 0 1-25.40032-25.40032 25.37472 25.37472 0 0 1 25.40032-25.40032h329.40032c13.99808 0 25.40032 11.40224 25.40032 25.40032s-11.40224 25.40032-25.40032 25.40032z m0 101.09952H356.50048a25.44128 25.44128 0 0 1-25.40032-25.40032 25.37472 25.37472 0 0 1 25.40032-25.40032h329.40032a25.44128 25.44128 0 0 1 25.40032 25.40032 25.37472 25.37472 0 0 1-25.40032 25.40032z" fill="#c20c0c" p-id="3897"></path><path d="M618.7008 550.6304a26.05568 26.05568 0 0 1-11.8016-2.89792l-84.89984-44.5952-84.89984 44.5952a25.4464 25.4464 0 0 1-26.79808-1.89952 25.5488 25.5488 0 0 1-10.10176-24.89344l16.19968-94.49984L347.6992 359.43424c-6.90176-6.79936-9.40032-16.90112-6.4-26.10176s10.99776-15.8976 20.50048-17.30048l94.8992-13.7984L499.2 216.23296c8.6016-17.39776 37.00224-17.39776 45.59872 0l42.50112 86.00064 94.8992 13.7984c9.6 1.39776 17.50016 8.09984 20.50048 17.30048s0.50176 19.3024-6.4 26.10176l-68.70016 67.00032 16.19968 94.49984a25.62048 25.62048 0 0 1-10.10176 24.89344 25.71776 25.71776 0 0 1-14.99648 4.80256z" fill="#c20c0c" p-id="3898"></path><path d="M420.10112 358.93248l41.40032 40.29952a25.4464 25.4464 0 0 1 7.30112 22.5024L459.008 478.63296l51.09248-26.90048a25.45664 25.45664 0 0 1 23.70048 0l51.0976 26.90048-9.79968-56.89856a25.4464 25.4464 0 0 1 7.30112-22.5024l41.40032-40.29952-57.20064-8.29952a25.63584 25.63584 0 0 1-19.2-13.9008l-25.6-51.79904-25.6 51.79904a25.48224 25.48224 0 0 1-19.2 13.9008l-56.89856 8.29952z" fill="#c20c0c" p-id="3899"></path></svg>