<?xml version="1.0" standalone="no"?><!DOCTYPE svg PUBLIC "-//W3C//DTD SVG 1.1//EN" "http://www.w3.org/Graphics/SVG/1.1/DTD/svg11.dtd"><svg t="1591453405721" class="icon" viewBox="0 0 1024 1024" version="1.1" xmlns="http://www.w3.org/2000/svg" p-id="3575" xmlns:xlink="http://www.w3.org/1999/xlink" width="200" height="200"><defs><style type="text/css"></style></defs><path d="M144.07904277 851.54894309h736.75714069v97.92921H144.07904277z" fill="#c20c0c" p-id="3576"></path><path d="M861.61643198 422.30782635H162.38356802c-15.55884645 0-29.28724036-9.15226261-34.77859793-23.7958828-5.49135757-14.64362017-0.91522626-30.20246662 10.98271513-40.26995552l361.51437338-296.53330881c6.40658382-5.49135757 16.4740727-5.49135757 22.88065656 0l361.51437337 296.53330881c11.8979414 10.06748889 16.4740727 25.62633533 10.98271514 40.26995552-4.5761313 14.64362017-18.30452524 23.79588279-33.86337169 23.7958828zM512 97.40250343L162.38356802 385.69877589l0.91522626 1.83045253h699.23286397l11.8979414-15.55884647-10.98271515 13.72839394L512 97.40250343z" fill="#c20c0c" p-id="3577"></path><path d="M712.43455132 422.30782635H311.56544868c-7.3218101 0-14.64362017-4.5761313-16.4740727-11.89794139-2.74567878-7.3218101 0-14.64362017 5.49135758-20.13497775l200.43455128-164.74072712c6.40658382-5.49135757 16.4740727-5.49135757 22.88065656 0l200.4345513 164.74072712c5.49135757 4.5761313 8.23703635 12.81316766 5.49135759 20.13497775-2.74567878 7.3218101-9.15226261 11.8979414-17.38929897 11.89794139z m-351.44688451-35.69382421h302.02466638L512 263.05845679 360.98766681 386.61400214zM825.92260775 873.51437339H198.07739225c-10.06748889 0-17.38929897-8.23703635-17.389299-17.389299v-98.84443626c0-10.06748889 8.23703635-17.38929897 17.389299-17.38929897h627.8452155c10.06748889 0 17.38929897 8.23703635 17.389299 17.38929897v98.84443626c0 9.15226261-7.3218101 17.38929897-17.389299 17.389299z m-609.54069029-35.69382422h592.15139133v-63.15061204H216.38191746v63.15061204zM879.92095723 966.86745209H144.07904277c-10.06748889 0-17.38929897-8.23703635-17.38929894-17.389299s8.23703635-17.38929897 17.38929894-17.38929896h736.75714069c10.06748889 0 17.38929897 8.23703635 17.38929898 17.38929896s-8.23703635 17.38929897-18.30452521 17.389299z" fill="#c20c0c" p-id="3578"></path><path d="M275.8716245 774.66993713c-10.06748889 0-17.38929897-8.23703635-17.38929901-17.389299v-274.56787849c0-10.06748889 8.23703635-17.38929897 17.38929901-17.38929898 10.06748889 0 17.38929897 8.23703635 17.38929896 17.38929898v273.65265223c0 10.06748889-8.23703635 18.30452524-17.38929896 18.30452526zM433.2905415 774.66993713c-10.06748889 0-17.38929897-8.23703635-17.38929898-17.389299v-274.56787849c0-10.06748889 8.23703635-17.38929897 17.38929898-17.38929898 10.06748889 0 17.38929897 8.23703635 17.38929896 17.38929898v273.65265223c0 10.06748889-7.3218101 18.30452524-17.38929896 18.30452526zM590.7094585 774.66993713c-10.06748889 0-17.38929897-8.23703635-17.38929896-17.389299v-274.56787849c0-10.06748889 8.23703635-17.38929897 17.38929896-17.38929898 10.06748889 0 17.38929897 8.23703635 17.38929898 17.38929898v273.65265223c0.91522626 10.06748889-7.3218101 18.30452524-17.38929898 18.30452526zM748.1283755 774.66993713c-10.06748889 0-17.38929897-8.23703635-17.38929896-17.389299v-274.56787849c0-10.06748889 8.23703635-17.38929897 17.38929896-17.38929898 10.06748889 0 17.38929897 8.23703635 17.38929901 17.38929898v273.65265223c0.91522626 10.06748889-7.3218101 18.30452524-17.38929901 18.30452526z" fill="#c20c0c" p-id="3579"></path></svg>